<svg xmlns="http://www.w3.org/2000/svg" viewBox="0 0 24 24"><path fill="currentColor" d="M12 7c-2.76 0-5 2.24-5 5s2.24 5 5 5 5-2.24 5-5-2.24-5-5-5zm0 8c-1.66 0-3-1.34-3-3s1.34-3 3-3 3 1.34 3 3-1.34 3-3 3zm-1-9.07V2.07h2V5.93h-2zm0 14.14V16.07h2v3.86h-2zm6.74-11.44 2.73-2.73 1.41 1.41-2.73 2.73-1.41-1.41zm-13.9 8.91 2.73 2.73-1.41 1.41-2.73-2.73 1.41-1.41zm14.16 1.42 1.41 1.41-2.73 2.73-1.41-1.41 2.73-2.73zM4.25 6.63l1.41-1.41 2.73 2.73-1.41 1.41L4.25 6.63zM21 12h-3v-2h3v2zm-18 0v-2h3v2H3z"/></svg>
