<svg xmlns="http://www.w3.org/2000/svg" viewBox="0 0 24 24"><path fill="currentColor" d="M12 2C9.24 2 7 4.24 7 7c0 1.54.66 2.93 1.71 3.92-.02.16-.03.33-.03.5 0 .5.1.98.28 1.42A5 5 0 0 0 7 17c0 2.76 2.24 5 5 5s5-2.24 5-5a5 5 0 0 0-1.96-3.98c.18-.44.28-.91.28-1.42 0-.17-.01-.34-.03-.5A4.98 4.98 0 0 0 17 7c0-2.76-2.24-5-5-5zm0 2c1.66 0 3 1.34 3 3S13.66 9 12 9 9 7.66 9 7s1.34-3 3-3zm0 9c.35 0 .69.03 1.01.1-.34.3-.67.64-.96 1.01A2.97 2.97 0 0 0 12 12c-.36 0-.71.07-1.03.19a7.6 7.6 0 0 0-.98-1.09c.32-.07.66-.1 1.01-.1zm0 2c1.66 0 3 1.34 3 3s-1.34 3-3 3-3-1.34-3-3 1.34-3 3-3z"/></svg>
